<?xml version="1.0" ?><!DOCTYPE svg  PUBLIC '-//W3C//DTD SVG 1.1//EN'  'http://www.w3.org/Graphics/SVG/1.1/DTD/svg11.dtd'><svg height="512px" style="enable-background:new 0 0 512 512;" version="1.1" viewBox="0 0 512 512" width="512px" xml:space="preserve" xmlns="http://www.w3.org/2000/svg" xmlns:xlink="http://www.w3.org/1999/xlink"><g id="digg__x2C__social__x2C__media__x2C__icons_x2C_"><g><path d="M425.614,86.281C382.172,42.981,322.253,16,255.96,16c-66.292,0-126.209,26.981-169.652,70.281    c-43.443,43.448-70.279,103.49-70.279,169.792c0,66.155,26.836,126.202,70.279,169.654C129.751,469.166,189.667,496,255.96,496    c66.293,0,126.212-26.834,169.654-70.272c43.443-43.452,70.282-103.499,70.282-169.654    C495.896,189.771,469.058,129.729,425.614,86.281z M412.465,412.432c-40.121,39.993-95.394,64.835-156.505,64.835    c-61.109,0-116.379-24.842-156.367-64.835C59.602,372.447,34.76,317.048,34.76,256.073c0-61.116,24.842-116.384,64.833-156.5    c39.988-39.993,95.258-64.708,156.367-64.708c61.111,0,116.384,24.714,156.505,64.708c39.988,40.116,64.698,95.384,64.698,156.5    C477.163,317.048,452.453,372.447,412.465,412.432z" style="fill:#262626;"/><path d="M221.948,208h-19.528c-2.659,0-4.419,3.434-4.419,6.088v89.673c0,2.796,1.76,1.239,4.419,1.239    h19.528c2.659,0,5.052,1.557,5.052-1.239v-89.673C227,211.434,224.607,208,221.948,208z" style="fill:#262626;"/><path d="M180.901,165h-19.53c-2.659,0-2.371,5.375-2.371,8.305v31.078c0,2.669-4.54,3.617-7.197,3.617    h-37.064c-2.79,0-3.739,3.434-3.739,6.088v89.673c0,2.796,0.95,1.239,3.739,1.239h66.162c2.652,0,7.099,1.557,7.099-1.239V173.305    C188,170.375,183.554,165,180.901,165z M159,280.386c0,2.649-4.54,5.614-7.197,5.614h-7.838c-2.654,0-3.965-2.965-3.965-5.614    v-42.913c0-2.659,1.311-4.473,3.965-4.473h7.838c2.657,0,7.197,1.813,7.197,4.473V280.386z" style="fill:#262626;"/><path d="M397.451,208h-66.431c-2.654,0-2.021,3.434-2.021,6.088v89.81c0,2.659-0.634,1.103,2.021,1.103    h37.202c2.659,0,3.777,5.938,3.777,8.589v1.997c0,2.659-1.118,4.414-3.777,4.414h-37.202c-2.654,0-2.021,2.631-2.021,5.29v13.68    c0,2.655-0.634,5.03,2.021,5.03h66.431c2.654,0,4.549-2.375,4.549-5.03V214.088C402,211.434,400.105,208,397.451,208z     M372,280.386c0,2.649-1.118,5.614-3.777,5.614h-7.836c-2.659,0-2.387-2.965-2.387-5.614v-42.913c0-2.659-0.272-4.473,2.387-4.473    h7.836c2.659,0,3.777,1.813,3.777,4.473V280.386z" style="fill:#262626;"/><path d="M221.948,165h-19.528c-2.659,0-4.419,5.375-4.419,8.305V192.7c0,2.654,1.76,1.3,4.419,1.3h19.528    c2.659,0,5.052,1.354,5.052-1.3v-19.396C227,170.375,224.607,165,221.948,165z" style="fill:#262626;"/><path d="M309.771,208h-66.563c-2.655,0-1.208,3.434-1.208,6.088v89.81c0,2.659-1.447,1.103,1.208,1.103    h37.201c2.654,0,4.591,5.938,4.591,8.589v1.997c0,2.659-1.937,4.414-4.591,4.414h-37.201c-2.655,0-1.208,2.631-1.208,5.29v13.68    c0,2.655-1.447,5.03,1.208,5.03h66.563c2.654,0,4.229-2.375,4.229-5.03V214.088C314,211.434,312.425,208,309.771,208z     M285,280.386c0,2.649-1.937,5.614-4.591,5.614h-7.841c-2.654,0-1.568-2.965-1.568-5.614v-42.913c0-2.659-1.086-4.473,1.568-4.473    h7.841c2.654,0,4.591,1.813,4.591,4.473V280.386z" style="fill:#262626;"/></g></g><g id="Layer_1"/></svg>